<?xml version="1.0" standalone="no"?>
<!DOCTYPE svg PUBLIC "-//W3C//DTD SVG 20010904//EN"
 "http://www.w3.org/TR/2001/REC-SVG-20010904/DTD/svg10.dtd">
<svg version="1.0" xmlns="http://www.w3.org/2000/svg"
 width="96.000000pt" height="96.000000pt" viewBox="0 0 96.000000 96.000000"
 preserveAspectRatio="xMidYMid meet">

<g transform="translate(0.000000,96.000000) scale(0.100000,-0.100000)"
fill="#000000" stroke="none">
<path d="M460 704 c0 -132 0 -135 -21 -129 -31 10 -76 -13 -89 -46 -26 -63 36
-125 99 -100 44 19 51 47 51 206 0 115 3 145 13 145 21 0 47 -34 48 -61 l0
-24 10 24 c22 55 -25 121 -85 121 l-26 0 0 -136z m-20 -190 c11 -12 10 -18 -3
-32 -16 -15 -18 -15 -34 0 -13 14 -14 20 -3 32 7 9 16 16 20 16 4 0 13 -7 20
-16z"/>
<path d="M200 614 c0 -122 -1 -125 -21 -119 -31 10 -76 -13 -89 -46 -26 -63
36 -125 99 -100 43 19 51 48 51 196 0 106 3 135 13 135 21 0 47 -34 48 -61 l0
-24 10 24 c22 55 -25 121 -85 121 l-26 0 0 -126z m-20 -180 c11 -12 10 -18 -3
-32 -16 -15 -18 -15 -34 0 -13 14 -14 20 -3 32 7 9 16 16 20 16 4 0 13 -7 20
-16z"/>
<path d="M660 515 c0 -190 -1 -195 -19 -185 -62 33 -161 -34 -161 -108 0 -57
64 -122 120 -122 35 0 86 34 105 69 12 24 15 68 15 221 0 206 -1 201 54 180
33 -12 62 -60 71 -117 3 -25 8 -43 11 -41 2 3 8 28 14 57 19 99 -13 163 -109
216 -24 14 -56 25 -72 25 l-29 0 0 -195z m-30 -270 c15 -18 10 -45 -12 -59
-35 -22 -74 27 -48 59 16 19 44 19 60 0z"/>
</g>
</svg>
